<svg width="434" height="359" viewBox="0 0 434 359" fill="none" xmlns="http://www.w3.org/2000/svg">
<line x1="409" y1="27.9913" x2="409.489" y2="330.996" stroke="black" stroke-width="5"/>
<line x1="407" y1="328.5" y2="328.5" stroke="black" stroke-width="5"/>
<line x1="407" y1="30.5" x2="155" y2="30.5" stroke="black" stroke-width="5"/>
<line x1="157.218" y1="29.1536" x2="2.21793" y2="327.154" stroke="black" stroke-width="5"/>
<g filter="url(#filter0_dd_332_32)">
<line x1="17.4815" y1="300.865" x2="24.4815" y2="325.865" stroke="black"/>
</g>
<line x1="143.698" y1="59.6013" x2="180.698" y2="31.6013" stroke="black"/>
<line x1="13.4797" y1="308.859" x2="18.4797" y2="325.859" stroke="black"/>
<line x1="22.4834" y1="291.872" x2="31.4834" y2="325.872" stroke="black"/>
<line x1="407" y1="312.5" x2="394" y2="312.5" stroke="black"/>
<line x1="394.5" y1="312" x2="394.5" y2="326" stroke="black"/>
<line x1="407" y1="45.5" x2="394" y2="45.5" stroke="black"/>
<line x1="394.5" y1="32" x2="394.5" y2="45" stroke="black"/>
<path d="M272.381 19.206C271.689 19.206 271.09 19.0852 270.584 18.8438C270.082 18.5975 269.713 18.233 269.476 17.75C269.239 17.267 269.18 16.6681 269.298 15.9531C269.402 15.3471 269.599 14.8404 269.888 14.4332C270.181 14.0213 270.539 13.6899 270.96 13.4389C271.382 13.188 271.848 12.9962 272.359 12.8636C272.875 12.7311 273.408 12.6411 273.957 12.5938C274.592 12.5275 275.108 12.4635 275.506 12.402C275.908 12.3404 276.209 12.2528 276.408 12.1392C276.607 12.0208 276.727 11.8456 276.77 11.6136V11.571C276.841 11.1259 276.758 10.7803 276.521 10.5341C276.289 10.2831 275.918 10.1577 275.406 10.1577C274.866 10.1577 274.407 10.276 274.028 10.5128C273.654 10.7495 273.387 11.0502 273.226 11.4148L270.47 11.1875C270.716 10.5246 271.088 9.9517 271.585 9.46875C272.087 8.98106 272.691 8.60701 273.396 8.34659C274.102 8.08144 274.893 7.94886 275.768 7.94886C276.375 7.94886 276.94 8.01989 277.466 8.16193C277.996 8.30398 278.453 8.52415 278.837 8.82244C279.225 9.12074 279.504 9.50426 279.675 9.97301C279.85 10.437 279.885 10.9934 279.781 11.642L278.553 19H275.683L275.939 17.4872H275.854C275.622 17.8281 275.338 18.1288 275.001 18.3892C274.665 18.6449 274.279 18.8461 273.844 18.9929C273.408 19.1349 272.92 19.206 272.381 19.206ZM273.595 17.1179C274.036 17.1179 274.44 17.0303 274.81 16.8551C275.184 16.6752 275.491 16.4337 275.733 16.1307C275.979 15.8277 276.135 15.4844 276.202 15.1009L276.386 13.9432C276.292 14.0047 276.154 14.0592 275.974 14.1065C275.799 14.1539 275.607 14.1989 275.399 14.2415C275.196 14.2794 274.99 14.3149 274.781 14.348C274.573 14.3764 274.386 14.4048 274.22 14.4332C273.856 14.4853 273.529 14.5682 273.24 14.6818C272.951 14.7955 272.717 14.9493 272.537 15.1435C272.357 15.3329 272.246 15.5696 272.203 15.8537C272.137 16.2656 272.234 16.5805 272.494 16.7983C272.759 17.0114 273.126 17.1179 273.595 17.1179Z" fill="black"/>
<path d="M218.355 354L220.77 339.455H223.795L222.901 344.923H222.986C223.166 344.63 223.407 344.331 223.71 344.028C224.018 343.721 224.394 343.465 224.839 343.261C225.285 343.053 225.813 342.949 226.423 342.949C227.219 342.949 227.917 343.157 228.518 343.574C229.12 343.986 229.553 344.608 229.818 345.442C230.083 346.27 230.112 347.31 229.903 348.56C229.705 349.777 229.338 350.804 228.803 351.642C228.272 352.475 227.635 353.107 226.892 353.538C226.153 353.964 225.37 354.178 224.541 354.178C223.954 354.178 223.471 354.08 223.092 353.886C222.718 353.692 222.427 353.448 222.219 353.155C222.01 352.857 221.861 352.556 221.771 352.253H221.622L221.338 354H218.355ZM222.226 348.545C222.122 349.194 222.119 349.76 222.219 350.243C222.323 350.726 222.522 351.102 222.815 351.372C223.114 351.637 223.504 351.77 223.987 351.77C224.484 351.77 224.925 351.635 225.308 351.365C225.696 351.09 226.018 350.712 226.274 350.229C226.53 349.741 226.71 349.18 226.814 348.545C226.913 347.916 226.916 347.362 226.821 346.884C226.726 346.405 226.532 346.031 226.239 345.761C225.945 345.491 225.547 345.357 225.045 345.357C224.558 345.357 224.12 345.487 223.732 345.747C223.348 346.008 223.026 346.377 222.766 346.855C222.51 347.333 222.33 347.897 222.226 348.545Z" fill="black"/>
<path d="M71.1989 151.213C70.0767 151.213 69.1534 150.976 68.429 150.503C67.7093 150.025 67.205 149.362 66.9162 148.514C66.6321 147.667 66.5824 146.691 66.767 145.588C66.947 144.471 67.3234 143.491 67.8963 142.648C68.4692 141.8 69.196 141.14 70.0767 140.666C70.9621 140.188 71.9564 139.949 73.0597 139.949C74.0114 139.949 74.8163 140.122 75.4744 140.467C76.1326 140.813 76.6155 141.298 76.9233 141.923C77.2311 142.548 77.3352 143.282 77.2358 144.125H74.3878C74.3925 143.585 74.2528 143.147 73.9688 142.811C73.6847 142.475 73.268 142.307 72.7188 142.307C72.2453 142.307 71.8097 142.435 71.4119 142.69C71.0189 142.941 70.6851 143.308 70.4105 143.791C70.1406 144.274 69.9512 144.859 69.8423 145.545C69.7287 146.241 69.7263 146.833 69.8352 147.321C69.9441 147.809 70.1525 148.18 70.4602 148.436C70.768 148.692 71.1562 148.82 71.625 148.82C71.9754 148.82 72.2997 148.749 72.598 148.607C72.901 148.464 73.1662 148.259 73.3935 147.989C73.6207 147.714 73.7959 147.385 73.919 147.001H76.7741C76.58 147.839 76.2273 148.573 75.7159 149.203C75.2093 149.833 74.5724 150.325 73.8054 150.68C73.0384 151.036 72.1695 151.213 71.1989 151.213Z" fill="#FF0000"/>
<path d="M425.389 180.693L424.338 187H421.32L423.734 172.455H426.668L425.759 178.016H425.879C426.23 177.372 426.71 176.867 427.321 176.503C427.932 176.134 428.654 175.949 429.487 175.949C430.245 175.949 430.877 176.115 431.384 176.446C431.895 176.773 432.257 177.244 432.47 177.859C432.683 178.47 432.719 179.202 432.577 180.054L431.412 187H428.393L429.459 180.594C429.568 179.921 429.48 179.398 429.196 179.024C428.917 178.65 428.472 178.463 427.861 178.463C427.449 178.463 427.07 178.551 426.724 178.726C426.379 178.901 426.088 179.157 425.851 179.493C425.619 179.824 425.465 180.224 425.389 180.693Z" fill="black"/>
<path d="M176.013 49.4545L173.598 64H170.523L172.455 52.3736H172.369L168.69 54.4616L169.145 51.7344L173.122 49.4545H176.013Z" fill="black"/>
<path d="M381.27 65L381.646 62.7841L387.612 57.9901C388.124 57.5639 388.557 57.1804 388.912 56.8395C389.272 56.4986 389.556 56.1648 389.764 55.8381C389.977 55.5066 390.117 55.1491 390.183 54.7656C390.254 54.3395 390.219 53.9725 390.077 53.6648C389.939 53.3523 389.717 53.1132 389.409 52.9474C389.106 52.777 388.741 52.6918 388.315 52.6918C387.87 52.6918 387.465 52.7817 387.101 52.9616C386.736 53.1416 386.433 53.3996 386.192 53.7358C385.95 54.072 385.789 54.4721 385.709 54.9361H382.79C382.951 53.9844 383.308 53.1581 383.862 52.4574C384.416 51.7566 385.112 51.2145 385.95 50.831C386.788 50.4474 387.716 50.2557 388.734 50.2557C389.776 50.2557 390.652 50.4403 391.362 50.8097C392.077 51.1742 392.596 51.6809 392.918 52.3295C393.24 52.9782 393.33 53.7216 393.188 54.5597C393.093 55.1136 392.892 55.6581 392.584 56.1932C392.276 56.7235 391.793 57.3153 391.135 57.9688C390.477 58.6174 389.575 59.3963 388.429 60.3054L385.964 62.3864L385.943 62.4858H392.058L391.639 65H381.27Z" fill="black"/>
<path d="M380.774 311.199C379.685 311.199 378.748 311.017 377.962 310.652C377.176 310.287 376.593 309.781 376.214 309.132C375.84 308.483 375.72 307.735 375.852 306.888H378.906C378.859 307.238 378.913 307.548 379.07 307.818C379.231 308.088 379.47 308.296 379.787 308.443C380.109 308.59 380.488 308.663 380.923 308.663C381.411 308.663 381.861 308.571 382.273 308.386C382.685 308.202 383.026 307.951 383.295 307.634C383.57 307.312 383.738 306.949 383.8 306.547C383.861 306.163 383.809 305.837 383.643 305.567C383.478 305.292 383.213 305.081 382.848 304.935C382.483 304.788 382.031 304.714 381.491 304.714H380.078L380.455 302.456H381.733C382.206 302.456 382.64 302.368 383.033 302.193C383.43 302.018 383.759 301.774 384.02 301.462C384.28 301.149 384.444 300.787 384.51 300.375C384.567 300.039 384.541 299.745 384.432 299.494C384.328 299.239 384.143 299.042 383.878 298.905C383.617 298.763 383.279 298.692 382.862 298.692C382.441 298.692 382.031 298.768 381.634 298.919C381.236 299.066 380.9 299.277 380.625 299.551C380.35 299.826 380.182 300.148 380.121 300.517H377.188C377.334 299.679 377.685 298.94 378.239 298.301C378.797 297.662 379.491 297.162 380.32 296.803C381.153 296.438 382.053 296.256 383.018 296.256C384.046 296.256 384.912 296.455 385.618 296.852C386.323 297.245 386.835 297.766 387.152 298.415C387.474 299.059 387.573 299.759 387.45 300.517C387.313 301.35 386.948 302.011 386.357 302.499C385.769 302.982 385.038 303.294 384.162 303.436V303.543C385.142 303.675 385.881 304.066 386.378 304.714C386.88 305.363 387.055 306.152 386.903 307.08C386.776 307.884 386.428 308.597 385.859 309.217C385.291 309.838 384.569 310.323 383.693 310.673C382.817 311.024 381.844 311.199 380.774 311.199Z" fill="black"/>
<path d="M38.4759 308.443L38.8736 306.021L46.5369 296.455H48.625L48.071 299.807H46.8281L41.9986 305.865L41.9844 305.979H50.6065L50.2017 308.443H38.4759ZM45.0312 311L45.5852 307.697L45.8196 306.639L47.5028 296.455H50.3864L47.9716 311H45.0312Z" fill="black"/>
<defs>
<filter id="filter0_dd_332_32" x="13" y="300.73" width="15.9629" height="33.2697" filterUnits="userSpaceOnUse" color-interpolation-filters="sRGB">
<feFlood flood-opacity="0" result="BackgroundImageFix"/>
<feColorMatrix in="SourceAlpha" type="matrix" values="0 0 0 0 0 0 0 0 0 0 0 0 0 0 0 0 0 0 127 0" result="hardAlpha"/>
<feOffset dy="4"/>
<feGaussianBlur stdDeviation="2"/>
<feComposite in2="hardAlpha" operator="out"/>
<feColorMatrix type="matrix" values="0 0 0 0 0 0 0 0 0 0 0 0 0 0 0 0 0 0 0.25 0"/>
<feBlend mode="normal" in2="BackgroundImageFix" result="effect1_dropShadow_332_32"/>
<feColorMatrix in="SourceAlpha" type="matrix" values="0 0 0 0 0 0 0 0 0 0 0 0 0 0 0 0 0 0 127 0" result="hardAlpha"/>
<feOffset dy="4"/>
<feGaussianBlur stdDeviation="2"/>
<feComposite in2="hardAlpha" operator="out"/>
<feColorMatrix type="matrix" values="0 0 0 0 0 0 0 0 0 0 0 0 0 0 0 0 0 0 0.25 0"/>
<feBlend mode="normal" in2="effect1_dropShadow_332_32" result="effect2_dropShadow_332_32"/>
<feBlend mode="normal" in="SourceGraphic" in2="effect2_dropShadow_332_32" result="shape"/>
</filter>
</defs>
</svg>
